<?xml version="1.0" standalone="no"?><!DOCTYPE svg PUBLIC "-//W3C//DTD SVG 1.1//EN"
        "http://www.w3.org/Graphics/SVG/1.1/DTD/svg11.dtd">
<svg t="1593089464593" class="icon" viewBox="0 0 1024 1024" version="1.1" xmlns="http://www.w3.org/2000/svg"
     p-id="57126" xmlns:xlink="http://www.w3.org/1999/xlink" width="128" height="128">
    <path d="M512 938.666667C276.352 938.666667 85.333333 747.648 85.333333 512S276.352 85.333333 512 85.333333s426.666667 191.018667 426.666667 426.666667-191.018667 426.666667-426.666667 426.666667z m0-85.333334a341.333333 341.333333 0 1 0 0-682.666666 341.333333 341.333333 0 0 0 0 682.666666z m0-401.664l120.661333-120.704 60.373334 60.373334L572.330667 512l120.704 120.661333-60.373334 60.373334L512 572.330667l-120.661333 120.704-60.373334-60.373334L451.669333 512 330.965333 391.338667l60.373334-60.373334L512 451.669333z"
          p-id="57127" fill="#333"></path>
</svg>